<svg xmlns="http://www.w3.org/2000/svg" viewBox="0 0 96 96" role="img" aria-label="SIGL symbol">
  <defs>
    <linearGradient id="siglRing" x1="0%" y1="0%" x2="100%" y2="100%">
      <stop offset="0%" stop-color="#F1F5F9" stop-opacity="0.95"/>
      <stop offset="100%" stop-color="#8EA4FF" stop-opacity="0.58"/>
    </linearGradient>
    <linearGradient id="siglRed" x1="0%" y1="0%" x2="100%" y2="100%">
      <stop offset="0%" stop-color="#F04A5D"/>
      <stop offset="100%" stop-color="#BA2036"/>
    </linearGradient>
    <linearGradient id="siglGreen" x1="0%" y1="100%" x2="100%" y2="0%">
      <stop offset="0%" stop-color="#22C55E"/>
      <stop offset="100%" stop-color="#86EFAC"/>
    </linearGradient>
    <filter id="siglGlow" x="-40%" y="-40%" width="180%" height="180%">
      <feDropShadow dx="0" dy="0" stdDeviation="2.4" flood-color="#22C55E" flood-opacity="0.28"/>
    </filter>
    <clipPath id="siglClip">
      <circle cx="48" cy="48" r="43"/>
    </clipPath>
  </defs>

  <circle cx="48" cy="48" r="43" fill="#0B0F17"/>
  <g clip-path="url(#siglClip)">
    <path d="M54 3
             C77 6 92 24 92 48
             C92 71 77 89 52 93
             C61 80 68 65 73 49
             C77 37 83 25 92 15
             C84 8 71 4 54 3Z"
          fill="url(#siglRed)"
          opacity="0.98"/>
  </g>
  <circle cx="48" cy="48" r="43" fill="none" stroke="url(#siglRing)" stroke-width="2.4"/>

  <path d="M18 42
           C20 29 31 18 45 18
           C50 18 55 20 60 23
           L65 17
           L71 22
           L69 31
           C73 34 76 39 77 44
           C71 42 65 43 60 46
           L55 49
           C49 53 41 55 33 55
           H24
           C19 53 16 48 18 42Z"
        fill="#F8FAFC"/>
  <path d="M51 29l5 2-7 2z"
        fill="#0B0F17"
        opacity="0.95"/>
  <path d="M46 44l8-2 6-4"
        fill="none"
        stroke="#0B0F17"
        stroke-width="2.6"
        stroke-linecap="round"
        stroke-linejoin="round"
        opacity="0.95"/>

  <path d="M77 64
           C75 54 67 46 55 46
           C47 46 39 49 33 55
           L26 50
           L19 54
           L22 63
           C18 67 16 72 16 77
           C22 74 29 73 36 75
           L44 79
           C51 83 60 84 69 82
           L78 79
           C83 77 86 73 88 68
           C83 68 79 66 77 64Z"
        fill="#EEF2F7"/>
  <path d="M25 53l8-5 8 5"
        fill="none"
        stroke="url(#siglGreen)"
        stroke-width="4.4"
        stroke-linecap="round"
        stroke-linejoin="round"/>
  <path d="M63 52l8-5 8 5"
        fill="none"
        stroke="url(#siglGreen)"
        stroke-width="4.4"
        stroke-linecap="round"
        stroke-linejoin="round"/>
  <path d="M31 60l11-9 8 4 15-18"
        fill="none"
        stroke="url(#siglGreen)"
        stroke-width="5"
        stroke-linecap="round"
        stroke-linejoin="round"
        filter="url(#siglGlow)"/>
  <circle cx="31" cy="60" r="3.6" fill="#22C55E"/>
</svg>
